<svg xmlns="http://www.w3.org/2000/svg" viewBox="0 0 1400 900" width="1400" height="900">
<text x="70" y="80" fill="#0F172A" font-family="Segoe UI, Arial, sans-serif" font-size="30" font-weight="700" text-anchor="start">50 Hz vs 60 Hz</text>
<text x="70" y="112" fill="#5B6B79" font-family="Segoe UI, Arial, sans-serif" font-size="16" font-weight="400" text-anchor="start">Comparativo visual para separar frequencia de tensao e mostrar que mudanca de Hz altera</text>
<text x="70" y="136" fill="#5B6B79" font-family="Segoe UI, Arial, sans-serif" font-size="16" font-weight="400" text-anchor="start">ciclos por segundo, nao apenas um numero na etiqueta.</text>
<rect x="70" y="140" width="1260" height="72" fill="#EEF7FF" rx="18" ry="18" stroke="#8CB9F4" stroke-width="2"/>
<text x="700" y="185" fill="#0F172A" font-family="Segoe UI, Arial, sans-serif" font-size="18" font-weight="700" text-anchor="center">FREQUENCIA NAO E TENSAO: O MESMO VALOR DE VOLTS PODE VIR COM RITMOS DIFERENTES</text>
<rect x="70" y="245" width="860" height="220" fill="#FFFDF8" rx="18" ry="18" stroke="#D9E2EC" stroke-width="1"/>
<line x1="70" y1="281.6666666666667" x2="930" y2="281.6666666666667" stroke="#D9E2EC" stroke-width="1" stroke-linecap="round"/>
<line x1="70" y1="318.3333333333333" x2="930" y2="318.3333333333333" stroke="#D9E2EC" stroke-width="1" stroke-linecap="round"/>
<line x1="70" y1="355.0" x2="930" y2="355.0" stroke="#D9E2EC" stroke-width="1" stroke-linecap="round"/>
<line x1="70" y1="391.66666666666663" x2="930" y2="391.66666666666663" stroke="#D9E2EC" stroke-width="1" stroke-linecap="round"/>
<line x1="70" y1="428.33333333333337" x2="930" y2="428.33333333333337" stroke="#D9E2EC" stroke-width="1" stroke-linecap="round"/>
<line x1="177.5" y1="245" x2="177.5" y2="465" stroke="#D9E2EC" stroke-width="1" stroke-linecap="round"/>
<line x1="285.0" y1="245" x2="285.0" y2="465" stroke="#D9E2EC" stroke-width="1" stroke-linecap="round"/>
<line x1="392.5" y1="245" x2="392.5" y2="465" stroke="#D9E2EC" stroke-width="1" stroke-linecap="round"/>
<line x1="500.0" y1="245" x2="500.0" y2="465" stroke="#D9E2EC" stroke-width="1" stroke-linecap="round"/>
<line x1="607.5" y1="245" x2="607.5" y2="465" stroke="#D9E2EC" stroke-width="1" stroke-linecap="round"/>
<line x1="715.0" y1="245" x2="715.0" y2="465" stroke="#D9E2EC" stroke-width="1" stroke-linecap="round"/>
<line x1="822.5" y1="245" x2="822.5" y2="465" stroke="#D9E2EC" stroke-width="1" stroke-linecap="round"/>
<text x="94" y="279" fill="#1D6FD8" font-family="Segoe UI, Arial, sans-serif" font-size="22" font-weight="700" text-anchor="start">50 Hz</text>
<text x="900" y="279" fill="#5B6B79" font-family="Segoe UI, Arial, sans-serif" font-size="14" font-weight="400" text-anchor="right">5 CICLOS EM 100 MS</text>
<polyline points="90.0,355.0 94.55555555555556,346.10921330345315 99.11111111111111,337.48856866172576 103.66666666666667,329.4 108.22222222222223,322.0892743840492 112.77777777777777,315.7785245123083 117.33333333333333,310.65949932623676 121.88888888888889,306.8877378157615 126.44444444444444,304.57784304577496 131.0,303.8 135.55555555555554,304.57784304577496 140.11111111111111,306.8877378157615 144.66666666666666,310.65949932623676 149.22222222222223,315.7785245123083 153.77777777777777,322.0892743840492 158.33333333333331,329.4 162.88888888888889,337.48856866172576 167.44444444444446,346.10921330345315 172.0,355.0 176.55555555555554,363.89078669654685 181.1111111111111,372.51143133827424 185.66666666666669,380.6 190.22222222222223,387.9107256159508 194.77777777777777,394.2214754876917 199.33333333333331,399.34050067376324 203.8888888888889,403.1122621842385 208.44444444444443,405.42215695422504 213.0,406.2 217.55555555555554,405.42215695422504 222.11111111111111,403.1122621842385 226.66666666666666,399.3405006737633 231.22222222222223,394.2214754876917 235.77777777777777,387.9107256159508 240.33333333333331,380.6 244.88888888888889,372.5114313382743 249.44444444444446,363.89078669654685 254.0,355.0 258.55555555555554,346.1092133034532 263.1111111111111,337.48856866172576 267.6666666666667,329.4 272.2222222222222,322.0892743840492 276.77777777777777,315.7785245123083 281.33333333333337,310.65949932623676 285.8888888888889,306.8877378157615 290.44444444444446,304.57784304577496 295.0,303.8 299.55555555555554,304.57784304577496 304.1111111111111,306.88773781576145 308.66666666666663,310.6594993262367 313.2222222222222,315.7785245123083 317.7777777777778,322.08927438404913 322.3333333333333,329.3999999999999 326.88888888888886,337.48856866172565 331.44444444444446,346.10921330345315 336.0,355.0 340.55555555555554,363.8907866965469 345.1111111111111,372.5114313382742 349.66666666666663,380.59999999999997 354.22222222222223,387.9107256159508 358.77777777777777,394.22147548769163 363.3333333333333,399.34050067376324 367.8888888888889,403.1122621842385 372.44444444444446,405.42215695422504 377.0,406.2 381.55555555555554,405.42215695422504 386.1111111111111,403.11226218423855 390.66666666666663,399.3405006737633 395.22222222222223,394.2214754876917 399.77777777777777,387.91072561595087 404.33333333333337,380.6 408.8888888888889,372.51143133827424 413.44444444444446,363.8907866965469 418.0,355.0 422.55555555555554,346.1092133034532 427.1111111111111,337.4885686617258 431.6666666666667,329.4 436.22222222222223,322.0892743840492 440.77777777777777,315.77852451230837 445.33333333333337,310.6594993262367 449.88888888888886,306.8877378157615 454.4444444444444,304.57784304577496 459.0,303.8 463.55555555555554,304.57784304577496 468.11111111111114,306.8877378157615 472.6666666666667,310.65949932623676 477.22222222222223,315.7785245123083 481.77777777777777,322.08927438404913 486.3333333333333,329.3999999999999 490.88888888888886,337.48856866172565 495.44444444444446,346.10921330345315 500.0,354.99999999999994 504.55555555555554,363.8907866965468 509.1111111111111,372.5114313382742 513.6666666666667,380.59999999999997 518.2222222222222,387.91072561595075 522.7777777777778,394.22147548769163 527.3333333333333,399.34050067376324 531.8888888888889,403.1122621842385 536.4444444444443,405.42215695422504 541.0,406.2 545.5555555555557,405.4221569542251 550.1111111111111,403.11226218423855 554.6666666666666,399.34050067376336 559.2222222222222,394.2214754876918 563.7777777777777,387.9107256159509 568.3333333333334,380.6 572.8888888888889,372.51143133827424 577.4444444444445,363.89078669654685 582.0,355.00000000000006 586.5555555555555,346.1092133034532 591.1111111111111,337.48856866172565 595.6666666666667,329.40000000000003 600.2222222222222,322.08927438404925 604.7777777777777,315.77852451230837 609.3333333333333,310.65949932623676 613.8888888888888,306.8877378157615 618.4444444444445,304.57784304577496 623.0,303.8 627.5555555555555,304.5778430457749 632.1111111111111,306.88773781576145 636.6666666666666,310.65949932623664 641.2222222222223,315.7785245123084 645.7777777777778,322.0892743840492 650.3333333333334,329.4 654.8888888888889,337.48856866172576 659.4444444444445,346.10921330345315 664.0,354.99999999999994 668.5555555555555,363.89078669654697 673.1111111111111,372.51143133827435 677.6666666666666,380.5999999999999 682.2222222222222,387.91072561595075 686.7777777777777,394.22147548769163 691.3333333333333,399.3405006737632 695.8888888888889,403.11226218423855 700.4444444444445,405.42215695422504 705.0,406.2 709.5555555555555,405.4221569542251 714.1111111111111,403.11226218423855 718.6666666666667,399.34050067376324 723.2222222222223,394.2214754876917 727.7777777777778,387.9107256159508 732.3333333333334,380.6 736.8888888888889,372.51143133827446 741.4444444444445,363.890786696547 746.0,355.00000000000006 750.5555555555555,346.1092133034532 755.1111111111111,337.4885686617258 759.6666666666666,329.4000000000001 764.2222222222222,322.08927438404925 768.7777777777777,315.77852451230854 773.3333333333334,310.6594993262367 777.8888888888889,306.88773781576145 782.4444444444445,304.57784304577496 787.0,303.8 791.5555555555555,304.5778430457749 796.1111111111112,306.8877378157614 800.6666666666667,310.6594993262368 805.2222222222223,315.7785245123082 809.7777777777777,322.0892743840492 814.3333333333333,329.3999999999998 818.8888888888888,337.4885686617257 823.4444444444445,346.10921330345315 828.0,354.99999999999994 832.5555555555555,363.89078669654674 837.1111111111111,372.5114313382742 841.6666666666666,380.5999999999999 846.2222222222223,387.91072561595087 850.7777777777778,394.2214754876917 855.3333333333334,399.3405006737633 859.8888888888889,403.11226218423855 864.4444444444445,405.42215695422504 869.0,406.2 873.5555555555555,405.4221569542251 878.1111111111111,403.1122621842386 882.6666666666666,399.34050067376336 887.2222222222222,394.2214754876918 891.7777777777777,387.910725615951 896.3333333333333,380.6000000000002 900.8888888888889,372.5114313382743 905.4444444444445,363.8907866965469 910.0,355.00000000000006" fill="none" stroke="#1D6FD8" stroke-width="4" stroke-linejoin="round" stroke-linecap="round"/>
<rect x="70" y="500" width="860" height="220" fill="#FFFDF8" rx="18" ry="18" stroke="#D9E2EC" stroke-width="1"/>
<line x1="70" y1="536.6666666666666" x2="930" y2="536.6666666666666" stroke="#D9E2EC" stroke-width="1" stroke-linecap="round"/>
<line x1="70" y1="573.3333333333334" x2="930" y2="573.3333333333334" stroke="#D9E2EC" stroke-width="1" stroke-linecap="round"/>
<line x1="70" y1="610.0" x2="930" y2="610.0" stroke="#D9E2EC" stroke-width="1" stroke-linecap="round"/>
<line x1="70" y1="646.6666666666666" x2="930" y2="646.6666666666666" stroke="#D9E2EC" stroke-width="1" stroke-linecap="round"/>
<line x1="70" y1="683.3333333333334" x2="930" y2="683.3333333333334" stroke="#D9E2EC" stroke-width="1" stroke-linecap="round"/>
<line x1="177.5" y1="500" x2="177.5" y2="720" stroke="#D9E2EC" stroke-width="1" stroke-linecap="round"/>
<line x1="285.0" y1="500" x2="285.0" y2="720" stroke="#D9E2EC" stroke-width="1" stroke-linecap="round"/>
<line x1="392.5" y1="500" x2="392.5" y2="720" stroke="#D9E2EC" stroke-width="1" stroke-linecap="round"/>
<line x1="500.0" y1="500" x2="500.0" y2="720" stroke="#D9E2EC" stroke-width="1" stroke-linecap="round"/>
<line x1="607.5" y1="500" x2="607.5" y2="720" stroke="#D9E2EC" stroke-width="1" stroke-linecap="round"/>
<line x1="715.0" y1="500" x2="715.0" y2="720" stroke="#D9E2EC" stroke-width="1" stroke-linecap="round"/>
<line x1="822.5" y1="500" x2="822.5" y2="720" stroke="#D9E2EC" stroke-width="1" stroke-linecap="round"/>
<text x="94" y="534" fill="#DB7C26" font-family="Segoe UI, Arial, sans-serif" font-size="22" font-weight="700" text-anchor="start">60 Hz</text>
<text x="900" y="534" fill="#5B6B79" font-family="Segoe UI, Arial, sans-serif" font-size="14" font-weight="400" text-anchor="right">6 CICLOS EM 100 MS</text>
<polyline points="90.0,610.0 94.55555555555556,599.3549214301307 99.11111111111111,589.175083874519 103.66666666666667,579.9053950826253 108.22222222222223,571.9509849355575 112.77777777777777,565.6594993262368 117.33333333333333,561.3059063656881 121.88888888888889,559.0804789571444 126.44444444444444,559.0804789571444 131.0,561.3059063656881 135.55555555555554,565.6594993262368 140.11111111111111,571.9509849355574 144.66666666666666,579.9053950826253 149.22222222222223,589.175083874519 153.77777777777777,599.3549214301307 158.33333333333331,610.0 162.88888888888889,620.6450785698693 167.44444444444446,630.824916125481 172.0,640.0946049173747 176.55555555555554,648.0490150644425 181.1111111111111,654.3405006737632 185.66666666666669,658.6940936343119 190.22222222222223,660.9195210428556 194.77777777777777,660.9195210428556 199.33333333333331,658.6940936343119 203.8888888888889,654.3405006737632 208.44444444444443,648.0490150644426 213.0,640.0946049173747 217.55555555555554,630.824916125481 222.11111111111111,620.6450785698693 226.66666666666666,610.0 231.22222222222223,599.3549214301307 235.77777777777777,589.175083874519 240.33333333333331,579.9053950826254 244.88888888888889,571.9509849355575 249.44444444444446,565.6594993262368 254.0,561.3059063656881 258.55555555555554,559.0804789571444 263.1111111111111,559.0804789571444 267.6666666666667,561.3059063656881 272.2222222222222,565.6594993262368 276.77777777777777,571.9509849355575 281.33333333333337,579.9053950826253 285.8888888888889,589.175083874519 290.44444444444446,599.3549214301306 295.0,610.0 299.55555555555554,620.6450785698693 304.1111111111111,630.824916125481 308.66666666666663,640.0946049173746 313.2222222222222,648.0490150644425 317.7777777777778,654.3405006737632 322.3333333333333,658.6940936343119 326.88888888888886,660.9195210428556 331.44444444444446,660.9195210428556 336.0,658.6940936343119 340.55555555555554,654.3405006737632 345.1111111111111,648.0490150644425 349.66666666666663,640.0946049173747 354.22222222222223,630.824916125481 358.77777777777777,620.6450785698693 363.3333333333333,610.0 367.8888888888889,599.3549214301307 372.44444444444446,589.1750838745191 377.0,579.9053950826254 381.55555555555554,571.9509849355575 386.1111111111111,565.6594993262368 390.66666666666663,561.3059063656882 395.22222222222223,559.0804789571444 399.77777777777777,559.0804789571444 404.33333333333337,561.3059063656882 408.8888888888889,565.6594993262368 413.44444444444446,571.9509849355575 418.0,579.9053950826254 422.55555555555554,589.175083874519 427.1111111111111,599.3549214301307 431.6666666666667,610.0 436.22222222222223,620.6450785698693 440.77777777777777,630.8249161254809 445.33333333333337,640.0946049173746 449.88888888888886,648.0490150644426 454.4444444444444,654.3405006737632 459.0,658.6940936343119 463.55555555555554,660.9195210428556 468.11111111111114,660.9195210428556 472.6666666666667,658.6940936343119 477.22222222222223,654.3405006737634 481.77777777777777,648.0490150644426 486.3333333333333,640.0946049173747 490.88888888888886,630.8249161254811 495.44444444444446,620.6450785698692 500.0,610.0 504.55555555555554,599.3549214301308 509.1111111111111,589.1750838745191 513.6666666666667,579.9053950826253 518.2222222222222,571.9509849355574 522.7777777777778,565.6594993262368 527.3333333333333,561.3059063656881 531.8888888888889,559.0804789571444 536.4444444444443,559.0804789571444 541.0,561.3059063656881 545.5555555555557,565.6594993262368 550.1111111111111,571.9509849355574 554.6666666666666,579.9053950826253 559.2222222222222,589.1750838745189 563.7777777777777,599.3549214301306 568.3333333333334,610.0 572.8888888888889,620.6450785698692 577.4444444444445,630.8249161254809 582.0,640.0946049173745 586.5555555555555,648.0490150644425 591.1111111111111,654.3405006737632 595.6666666666667,658.6940936343119 600.2222222222222,660.9195210428556 604.7777777777777,660.9195210428556 609.3333333333333,658.6940936343119 613.8888888888888,654.3405006737634 618.4444444444445,648.0490150644425 623.0,640.0946049173746 627.5555555555555,630.824916125481 632.1111111111111,620.6450785698692 636.6666666666666,610.0 641.2222222222223,599.3549214301308 645.7777777777778,589.1750838745191 650.3333333333334,579.9053950826255 654.8888888888889,571.9509849355575 659.4444444444445,565.6594993262369 664.0,561.3059063656882 668.5555555555555,559.0804789571444 673.1111111111111,559.0804789571444 677.6666666666666,561.3059063656881 682.2222222222222,565.6594993262366 686.7777777777777,571.9509849355574 691.3333333333333,579.9053950826252 695.8888888888889,589.175083874519 700.4444444444445,599.3549214301307 705.0,610.0 709.5555555555555,620.6450785698692 714.1111111111111,630.8249161254809 718.6666666666667,640.0946049173747 723.2222222222223,648.0490150644425 727.7777777777778,654.3405006737632 732.3333333333334,658.6940936343118 736.8888888888889,660.9195210428556 741.4444444444445,660.9195210428556 746.0,658.6940936343118 750.5555555555555,654.3405006737631 755.1111111111111,648.0490150644425 759.6666666666666,640.0946049173746 764.2222222222222,630.824916125481 768.7777777777777,620.6450785698693 773.3333333333334,610.0000000000001 777.8888888888889,599.3549214301308 782.4444444444445,589.1750838745191 787.0,579.9053950826255 791.5555555555555,571.9509849355576 796.1111111111112,565.6594993262368 800.6666666666667,561.3059063656882 805.2222222222223,559.0804789571444 809.7777777777777,559.0804789571444 814.3333333333333,561.3059063656881 818.8888888888888,565.6594993262366 823.4444444444445,571.9509849355576 828.0,579.9053950826253 832.5555555555555,589.175083874519 837.1111111111111,599.3549214301307 841.6666666666666,609.9999999999998 846.2222222222223,620.645078569869 850.7777777777778,630.8249161254809 855.3333333333334,640.0946049173746 859.8888888888889,648.0490150644423 864.4444444444445,654.3405006737631 869.0,658.6940936343118 873.5555555555555,660.9195210428555 878.1111111111111,660.9195210428556 882.6666666666666,658.6940936343119 887.2222222222222,654.3405006737632 891.7777777777777,648.0490150644428 896.3333333333333,640.0946049173748 900.8888888888889,630.8249161254809 905.4444444444445,620.6450785698694 910.0,610.0000000000001" fill="none" stroke="#DB7C26" stroke-width="4" stroke-linejoin="round" stroke-linecap="round"/>
<rect x="970" y="245" width="360" height="475" fill="#FFFDF8" rx="18" ry="18" stroke="#D9E2EC" stroke-width="1"/>
<text x="995" y="280" fill="#0F172A" font-family="Segoe UI, Arial, sans-serif" font-size="18" font-weight="700" text-anchor="start">O QUE MUDA NA PRATICA</text>
<rect x="995" y="308" width="10" height="10" fill="#D9534F" rx="18" ry="18"/>
<text x="1018" y="320" fill="#1F2933" font-family="Segoe UI, Arial, sans-serif" font-size="16" font-weight="700" text-anchor="start">Motores</text>
<text x="1018" y="344" fill="#5B6B79" font-family="Segoe UI, Arial, sans-serif" font-size="14" font-weight="400" text-anchor="start">RPM e torque de referencia podem</text>
<text x="1018" y="366" fill="#5B6B79" font-family="Segoe UI, Arial, sans-serif" font-size="14" font-weight="400" text-anchor="start">mudar quando a frequencia sai do</text>
<text x="1018" y="388" fill="#5B6B79" font-family="Segoe UI, Arial, sans-serif" font-size="14" font-weight="400" text-anchor="start">projeto.</text>
<rect x="995" y="404" width="10" height="10" fill="#E0A100" rx="18" ry="18"/>
<text x="1018" y="416" fill="#1F2933" font-family="Segoe UI, Arial, sans-serif" font-size="16" font-weight="700" text-anchor="start">Relogios e timers</text>
<text x="1018" y="440" fill="#5B6B79" font-family="Segoe UI, Arial, sans-serif" font-size="14" font-weight="400" text-anchor="start">Equipamentos dependentes de</text>
<text x="1018" y="462" fill="#5B6B79" font-family="Segoe UI, Arial, sans-serif" font-size="14" font-weight="400" text-anchor="start">frequencia podem dessicronizar.</text>
<rect x="995" y="500" width="10" height="10" fill="#2A9D57" rx="18" ry="18"/>
<text x="1018" y="512" fill="#1F2933" font-family="Segoe UI, Arial, sans-serif" font-size="16" font-weight="700" text-anchor="start">Compatibilidade</text>
<text x="1018" y="536" fill="#5B6B79" font-family="Segoe UI, Arial, sans-serif" font-size="14" font-weight="400" text-anchor="start">A mesma tensao nao garante que o</text>
<text x="1018" y="558" fill="#5B6B79" font-family="Segoe UI, Arial, sans-serif" font-size="14" font-weight="400" text-anchor="start">equipamento vai operar bem.</text>
<rect x="995" y="596" width="10" height="10" fill="#1D6FD8" rx="18" ry="18"/>
<text x="1018" y="608" fill="#1F2933" font-family="Segoe UI, Arial, sans-serif" font-size="16" font-weight="700" text-anchor="start">Diagnostico</text>
<text x="1018" y="632" fill="#5B6B79" font-family="Segoe UI, Arial, sans-serif" font-size="14" font-weight="400" text-anchor="start">Frequencimetro e leitura de</text>
<text x="1018" y="654" fill="#5B6B79" font-family="Segoe UI, Arial, sans-serif" font-size="14" font-weight="400" text-anchor="start">gerador/cais evitam suposicoes</text>
<text x="1018" y="676" fill="#5B6B79" font-family="Segoe UI, Arial, sans-serif" font-size="14" font-weight="400" text-anchor="start">erradas.</text>
<text x="70" y="862" fill="#5B6B79" font-family="Segoe UI, Arial, sans-serif" font-size="14" font-weight="400" text-anchor="start">FORMATO: GRAFICO-COMPARATIVO  |  PRIORIDADE: ALTA</text>
</svg>
