<svg xmlns="http://www.w3.org/2000/svg" viewBox="0 0 1400 900" width="1400" height="900">
<rect x="50" y="38" width="1300" height="116" fill="#FFFDF8" rx="22" ry="22" stroke="#E4D8C8" stroke-width="1"/>
<text x="78" y="68" fill="#5B6B79" font-family="Segoe UI, Arial, sans-serif" font-size="12" font-weight="700" text-anchor="start">ELETRO NAUTICA / VISUAL TECNICO</text>
<text x="78" y="92" fill="#0F172A" font-family="Segoe UI, Arial, sans-serif" font-size="24" font-weight="700" text-anchor="start">Onda pura vs onda quadrada</text>
<text x="78" y="128" fill="#5B6B79" font-family="Segoe UI, Arial, sans-serif" font-size="13" font-weight="400" text-anchor="start">Comparativo didático entre forma de onda limpa e forma de onda pobre para explicar por que tensao nominal igual nao garante mesma</text>
<text x="78" y="146" fill="#5B6B79" font-family="Segoe UI, Arial, sans-serif" font-size="13" font-weight="400" text-anchor="start">qualidade de energia.</text>
<rect x="70" y="140" width="1260" height="72" fill="#FFF7E8" rx="18" ry="18" stroke="#F0C36D" stroke-width="2"/>
<text x="700" y="185" fill="#0F172A" font-family="Segoe UI, Arial, sans-serif" font-size="18" font-weight="700" text-anchor="center">MESMA TENSAO NOMINAL NAO IMPLICA MESMA QUALIDADE DE ENERGIA</text>
<rect x="70" y="245" width="860" height="220" fill="#FFFDF8" rx="18" ry="18" stroke="#D9E2EC" stroke-width="1"/>
<line x1="70" y1="281.6666666666667" x2="930" y2="281.6666666666667" stroke="#D9E2EC" stroke-width="1" stroke-linecap="round"/>
<line x1="70" y1="318.3333333333333" x2="930" y2="318.3333333333333" stroke="#D9E2EC" stroke-width="1" stroke-linecap="round"/>
<line x1="70" y1="355.0" x2="930" y2="355.0" stroke="#D9E2EC" stroke-width="1" stroke-linecap="round"/>
<line x1="70" y1="391.66666666666663" x2="930" y2="391.66666666666663" stroke="#D9E2EC" stroke-width="1" stroke-linecap="round"/>
<line x1="70" y1="428.33333333333337" x2="930" y2="428.33333333333337" stroke="#D9E2EC" stroke-width="1" stroke-linecap="round"/>
<line x1="177.5" y1="245" x2="177.5" y2="465" stroke="#D9E2EC" stroke-width="1" stroke-linecap="round"/>
<line x1="285.0" y1="245" x2="285.0" y2="465" stroke="#D9E2EC" stroke-width="1" stroke-linecap="round"/>
<line x1="392.5" y1="245" x2="392.5" y2="465" stroke="#D9E2EC" stroke-width="1" stroke-linecap="round"/>
<line x1="500.0" y1="245" x2="500.0" y2="465" stroke="#D9E2EC" stroke-width="1" stroke-linecap="round"/>
<line x1="607.5" y1="245" x2="607.5" y2="465" stroke="#D9E2EC" stroke-width="1" stroke-linecap="round"/>
<line x1="715.0" y1="245" x2="715.0" y2="465" stroke="#D9E2EC" stroke-width="1" stroke-linecap="round"/>
<line x1="822.5" y1="245" x2="822.5" y2="465" stroke="#D9E2EC" stroke-width="1" stroke-linecap="round"/>
<text x="94" y="279" fill="#1D6FD8" font-family="Segoe UI, Arial, sans-serif" font-size="22" font-weight="700" text-anchor="start">Senoidal pura</text>
<polyline points="90.0,355.0 94.55555555555556,349.64814268069614 99.11111111111111,344.35492143013073 103.66666666666667,339.1783298880027 108.22222222222223,334.17508387451903 112.77777777777777,329.4 117.33333333333333,324.9053950826254 121.88888888888889,320.74051295442644 126.44444444444444,316.9509849355574 131.0,313.5783298880027 135.55555555555554,310.65949932623676 140.11111111111111,308.22647256869885 144.66666666666666,306.30590636568814 149.22222222222223,304.91884284242917 153.77777777777777,304.0804789571444 158.33333333333331,303.8 162.88888888888889,304.0804789571444 167.44444444444446,304.91884284242917 172.0,306.30590636568814 176.55555555555554,308.2264725686988 181.1111111111111,310.65949932623676 185.66666666666669,313.5783298880027 190.22222222222223,316.9509849355574 194.77777777777777,320.74051295442644 199.33333333333331,324.9053950826254 203.8888888888889,329.4 208.44444444444443,334.17508387451903 213.0,339.1783298880027 217.55555555555554,344.35492143013073 222.11111111111111,349.64814268069614 226.66666666666666,355.0 231.22222222222223,360.35185731930386 235.77777777777777,365.64507856986927 240.33333333333331,370.82167011199726 244.88888888888889,375.82491612548097 249.44444444444446,380.6 254.0,385.0946049173746 258.55555555555554,389.25948704557356 263.1111111111111,393.0490150644426 267.6666666666667,396.4216701119973 272.2222222222222,399.34050067376324 276.77777777777777,401.7735274313012 281.33333333333337,403.69409363431186 285.8888888888889,405.08115715757083 290.44444444444446,405.9195210428556 295.0,406.2 299.55555555555554,405.9195210428556 304.1111111111111,405.08115715757083 308.66666666666663,403.69409363431186 313.2222222222222,401.7735274313012 317.7777777777778,399.34050067376324 322.3333333333333,396.4216701119973 326.88888888888886,393.0490150644426 331.44444444444446,389.25948704557356 336.0,385.0946049173747 340.55555555555554,380.59999999999997 345.1111111111111,375.82491612548097 349.66666666666663,370.8216701119973 354.22222222222223,365.64507856986927 358.77777777777777,360.35185731930386 363.3333333333333,355.0 367.8888888888889,349.6481426806962 372.44444444444446,344.3549214301308 377.0,339.17832988800274 381.55555555555554,334.17508387451903 386.1111111111111,329.40000000000003 390.66666666666663,324.90539508262543 395.22222222222223,320.74051295442644 399.77777777777777,316.95098493555747 404.33333333333337,313.57832988800266 408.8888888888889,310.65949932623676 413.44444444444446,308.22647256869885 418.0,306.30590636568814 422.55555555555554,304.91884284242917 427.1111111111111,304.0804789571444 431.6666666666667,303.8 436.22222222222223,304.0804789571444 440.77777777777777,304.91884284242917 445.33333333333337,306.30590636568814 449.88888888888886,308.22647256869885 454.4444444444444,310.6594993262367 459.0,313.5783298880027 463.55555555555554,316.9509849355574 468.11111111111114,320.74051295442644 472.6666666666667,324.9053950826254 477.22222222222223,329.3999999999999 481.77777777777777,334.175083874519 486.3333333333333,339.1783298880027 490.88888888888886,344.3549214301306 495.44444444444446,349.6481426806962 500.0,355.0 504.55555555555554,360.3518573193038 509.1111111111111,365.6450785698692 513.6666666666667,370.8216701119974 518.2222222222222,375.82491612548097 522.7777777777778,380.6 527.3333333333333,385.0946049173746 531.8888888888889,389.25948704557356 536.4444444444443,393.04901506444253 541.0,396.4216701119973 545.5555555555557,399.34050067376324 550.1111111111111,401.77352743130115 554.6666666666666,403.69409363431186 559.2222222222222,405.08115715757083 563.7777777777777,405.9195210428556 568.3333333333334,406.2 572.8888888888889,405.9195210428556 577.4444444444445,405.08115715757083 582.0,403.6940936343119 586.5555555555555,401.7735274313012 591.1111111111111,399.34050067376324 595.6666666666667,396.42167011199734 600.2222222222222,393.0490150644426 604.7777777777777,389.25948704557356 609.3333333333333,385.0946049173746 613.8888888888888,380.6000000000001 618.4444444444445,375.82491612548097 623.0,370.82167011199726 627.5555555555555,365.64507856986927 632.1111111111111,360.3518573193038 636.6666666666666,355.0 641.2222222222223,349.64814268069625 645.7777777777778,344.3549214301308 650.3333333333334,339.1783298880028 654.8888888888889,334.1750838745191 659.4444444444445,329.40000000000015 664.0,324.9053950826255 668.5555555555555,320.74051295442644 673.1111111111111,316.95098493555747 677.6666666666666,313.5783298880027 682.2222222222222,310.65949932623676 686.7777777777777,308.22647256869885 691.3333333333333,306.3059063656882 695.8888888888889,304.91884284242917 700.4444444444445,304.0804789571444 705.0,303.8 709.5555555555555,304.0804789571444 714.1111111111111,304.9188428424291 718.6666666666667,306.30590636568814 723.2222222222223,308.22647256869885 727.7777777777778,310.65949932623676 732.3333333333334,313.57832988800266 736.8888888888889,316.9509849355574 741.4444444444445,320.74051295442644 746.0,324.90539508262543 750.5555555555555,329.4000000000001 755.1111111111111,334.17508387451903 759.6666666666666,339.17832988800274 764.2222222222222,344.35492143013073 768.7777777777777,349.6481426806962 773.3333333333334,354.99999999999994 777.8888888888889,360.35185731930375 782.4444444444445,365.6450785698692 787.0,370.8216701119972 791.5555555555555,375.8249161254809 796.1111111111112,380.59999999999997 800.6666666666667,385.09460491737457 805.2222222222223,389.25948704557356 809.7777777777777,393.0490150644426 814.3333333333333,396.42167011199723 818.8888888888888,399.34050067376324 823.4444444444445,401.7735274313012 828.0,403.69409363431186 832.5555555555555,405.08115715757083 837.1111111111111,405.9195210428556 841.6666666666666,406.2 846.2222222222223,405.9195210428556 850.7777777777778,405.0811571575709 855.3333333333334,403.69409363431186 859.8888888888889,401.77352743130126 864.4444444444445,399.34050067376336 869.0,396.4216701119974 873.5555555555555,393.04901506444264 878.1111111111111,389.25948704557356 882.6666666666666,385.0946049173747 887.2222222222222,380.6 891.7777777777777,375.82491612548114 896.3333333333333,370.82167011199743 900.8888888888889,365.6450785698692 905.4444444444445,360.3518573193039 910.0,355.00000000000006" fill="none" stroke="#1D6FD8" stroke-width="4" stroke-linejoin="round" stroke-linecap="round"/>
<text x="906" y="279" fill="#5B6B79" font-family="Segoe UI, Arial, sans-serif" font-size="14" font-weight="400" text-anchor="right">REFERENCIA PARA CARGAS REAIS</text>
<rect x="70" y="500" width="860" height="220" fill="#FFFDF8" rx="18" ry="18" stroke="#D9E2EC" stroke-width="1"/>
<line x1="70" y1="536.6666666666666" x2="930" y2="536.6666666666666" stroke="#D9E2EC" stroke-width="1" stroke-linecap="round"/>
<line x1="70" y1="573.3333333333334" x2="930" y2="573.3333333333334" stroke="#D9E2EC" stroke-width="1" stroke-linecap="round"/>
<line x1="70" y1="610.0" x2="930" y2="610.0" stroke="#D9E2EC" stroke-width="1" stroke-linecap="round"/>
<line x1="70" y1="646.6666666666666" x2="930" y2="646.6666666666666" stroke="#D9E2EC" stroke-width="1" stroke-linecap="round"/>
<line x1="70" y1="683.3333333333334" x2="930" y2="683.3333333333334" stroke="#D9E2EC" stroke-width="1" stroke-linecap="round"/>
<line x1="177.5" y1="500" x2="177.5" y2="720" stroke="#D9E2EC" stroke-width="1" stroke-linecap="round"/>
<line x1="285.0" y1="500" x2="285.0" y2="720" stroke="#D9E2EC" stroke-width="1" stroke-linecap="round"/>
<line x1="392.5" y1="500" x2="392.5" y2="720" stroke="#D9E2EC" stroke-width="1" stroke-linecap="round"/>
<line x1="500.0" y1="500" x2="500.0" y2="720" stroke="#D9E2EC" stroke-width="1" stroke-linecap="round"/>
<line x1="607.5" y1="500" x2="607.5" y2="720" stroke="#D9E2EC" stroke-width="1" stroke-linecap="round"/>
<line x1="715.0" y1="500" x2="715.0" y2="720" stroke="#D9E2EC" stroke-width="1" stroke-linecap="round"/>
<line x1="822.5" y1="500" x2="822.5" y2="720" stroke="#D9E2EC" stroke-width="1" stroke-linecap="round"/>
<text x="94" y="534" fill="#DB7C26" font-family="Segoe UI, Arial, sans-serif" font-size="22" font-weight="700" text-anchor="start">Quadrada</text>
<polyline points="90.0,558.8 94.55555555555556,558.8 99.11111111111111,558.8 103.66666666666667,558.8 108.22222222222223,558.8 112.77777777777777,558.8 117.33333333333333,558.8 121.88888888888889,558.8 126.44444444444444,558.8 131.0,558.8 135.55555555555554,558.8 140.11111111111111,558.8 144.66666666666666,558.8 149.22222222222223,558.8 153.77777777777777,558.8 158.33333333333331,558.8 162.88888888888889,558.8 167.44444444444446,558.8 172.0,558.8 176.55555555555554,558.8 181.1111111111111,558.8 185.66666666666669,558.8 190.22222222222223,558.8 194.77777777777777,558.8 199.33333333333331,558.8 203.8888888888889,558.8 208.44444444444443,558.8 213.0,558.8 217.55555555555554,558.8 222.11111111111111,558.8 226.66666666666666,558.8 231.22222222222223,661.2 235.77777777777777,661.2 240.33333333333331,661.2 244.88888888888889,661.2 249.44444444444446,661.2 254.0,661.2 258.55555555555554,661.2 263.1111111111111,661.2 267.6666666666667,661.2 272.2222222222222,661.2 276.77777777777777,661.2 281.33333333333337,661.2 285.8888888888889,661.2 290.44444444444446,661.2 295.0,661.2 299.55555555555554,661.2 304.1111111111111,661.2 308.66666666666663,661.2 313.2222222222222,661.2 317.7777777777778,661.2 322.3333333333333,661.2 326.88888888888886,661.2 331.44444444444446,661.2 336.0,661.2 340.55555555555554,661.2 345.1111111111111,661.2 349.66666666666663,661.2 354.22222222222223,661.2 358.77777777777777,661.2 363.3333333333333,661.2 367.8888888888889,558.8 372.44444444444446,558.8 377.0,558.8 381.55555555555554,558.8 386.1111111111111,558.8 390.66666666666663,558.8 395.22222222222223,558.8 399.77777777777777,558.8 404.33333333333337,558.8 408.8888888888889,558.8 413.44444444444446,558.8 418.0,558.8 422.55555555555554,558.8 427.1111111111111,558.8 431.6666666666667,558.8 436.22222222222223,558.8 440.77777777777777,558.8 445.33333333333337,558.8 449.88888888888886,558.8 454.4444444444444,558.8 459.0,558.8 463.55555555555554,558.8 468.11111111111114,558.8 472.6666666666667,558.8 477.22222222222223,558.8 481.77777777777777,558.8 486.3333333333333,558.8 490.88888888888886,558.8 495.44444444444446,558.8 500.0,558.8 504.55555555555554,661.2 509.1111111111111,661.2 513.6666666666667,661.2 518.2222222222222,661.2 522.7777777777778,661.2 527.3333333333333,661.2 531.8888888888889,661.2 536.4444444444443,661.2 541.0,661.2 545.5555555555557,661.2 550.1111111111111,661.2 554.6666666666666,661.2 559.2222222222222,661.2 563.7777777777777,661.2 568.3333333333334,661.2 572.8888888888889,661.2 577.4444444444445,661.2 582.0,661.2 586.5555555555555,661.2 591.1111111111111,661.2 595.6666666666667,661.2 600.2222222222222,661.2 604.7777777777777,661.2 609.3333333333333,661.2 613.8888888888888,661.2 618.4444444444445,661.2 623.0,661.2 627.5555555555555,661.2 632.1111111111111,661.2 636.6666666666666,661.2 641.2222222222223,558.8 645.7777777777778,558.8 650.3333333333334,558.8 654.8888888888889,558.8 659.4444444444445,558.8 664.0,558.8 668.5555555555555,558.8 673.1111111111111,558.8 677.6666666666666,558.8 682.2222222222222,558.8 686.7777777777777,558.8 691.3333333333333,558.8 695.8888888888889,558.8 700.4444444444445,558.8 705.0,558.8 709.5555555555555,558.8 714.1111111111111,558.8 718.6666666666667,558.8 723.2222222222223,558.8 727.7777777777778,558.8 732.3333333333334,558.8 736.8888888888889,558.8 741.4444444444445,558.8 746.0,558.8 750.5555555555555,558.8 755.1111111111111,558.8 759.6666666666666,558.8 764.2222222222222,558.8 768.7777777777777,558.8 773.3333333333334,558.8 777.8888888888889,661.2 782.4444444444445,661.2 787.0,661.2 791.5555555555555,661.2 796.1111111111112,661.2 800.6666666666667,661.2 805.2222222222223,661.2 809.7777777777777,661.2 814.3333333333333,661.2 818.8888888888888,661.2 823.4444444444445,661.2 828.0,661.2 832.5555555555555,661.2 837.1111111111111,661.2 841.6666666666666,661.2 846.2222222222223,661.2 850.7777777777778,661.2 855.3333333333334,661.2 859.8888888888889,661.2 864.4444444444445,661.2 869.0,661.2 873.5555555555555,661.2 878.1111111111111,661.2 882.6666666666666,661.2 887.2222222222222,661.2 891.7777777777777,661.2 896.3333333333333,661.2 900.8888888888889,661.2 905.4444444444445,661.2 910.0,661.2" fill="none" stroke="#DB7C26" stroke-width="4" stroke-linejoin="round" stroke-linecap="round"/>
<text x="906" y="534" fill="#5B6B79" font-family="Segoe UI, Arial, sans-serif" font-size="14" font-weight="400" text-anchor="right">MESMA TENSAO, FORMA PIOR</text>
<rect x="970" y="245" width="360" height="475" fill="#FFFDF8" rx="18" ry="18" stroke="#D9E2EC" stroke-width="1"/>
<text x="995" y="280" fill="#0F172A" font-family="Segoe UI, Arial, sans-serif" font-size="18" font-weight="700" text-anchor="start">IMPLICACOES PRATICAS</text>
<rect x="995" y="308" width="10" height="10" fill="#D9534F" rx="18" ry="18"/>
<text x="1018" y="320" fill="#1F2933" font-family="Segoe UI, Arial, sans-serif" font-size="16" font-weight="700" text-anchor="start">Motores e compressores</text>
<text x="1018" y="344" fill="#5B6B79" font-family="Segoe UI, Arial, sans-serif" font-size="14" font-weight="400" text-anchor="start">Podem aquecer, vibrar mais e</text>
<text x="1018" y="366" fill="#5B6B79" font-family="Segoe UI, Arial, sans-serif" font-size="14" font-weight="400" text-anchor="start">partir pior.</text>
<rect x="995" y="404" width="10" height="10" fill="#DB7C26" rx="18" ry="18"/>
<text x="1018" y="416" fill="#1F2933" font-family="Segoe UI, Arial, sans-serif" font-size="16" font-weight="700" text-anchor="start">Transformadores e fontes</text>
<text x="1018" y="440" fill="#5B6B79" font-family="Segoe UI, Arial, sans-serif" font-size="14" font-weight="400" text-anchor="start">Zumbido, calor e menor eficiencia</text>
<text x="1018" y="462" fill="#5B6B79" font-family="Segoe UI, Arial, sans-serif" font-size="14" font-weight="400" text-anchor="start">aparecem cedo.</text>
<rect x="995" y="500" width="10" height="10" fill="#E0A100" rx="18" ry="18"/>
<text x="1018" y="512" fill="#1F2933" font-family="Segoe UI, Arial, sans-serif" font-size="16" font-weight="700" text-anchor="start">Eletronica sensivel</text>
<text x="1018" y="536" fill="#5B6B79" font-family="Segoe UI, Arial, sans-serif" font-size="14" font-weight="400" text-anchor="start">Ruido, erro e incompatibilidade</text>
<text x="1018" y="558" fill="#5B6B79" font-family="Segoe UI, Arial, sans-serif" font-size="14" font-weight="400" text-anchor="start">ficam mais provaveis.</text>
<rect x="995" y="596" width="10" height="10" fill="#2A9D57" rx="18" ry="18"/>
<text x="1018" y="608" fill="#1F2933" font-family="Segoe UI, Arial, sans-serif" font-size="16" font-weight="700" text-anchor="start">Cargas resistivas simples</text>
<text x="1018" y="632" fill="#5B6B79" font-family="Segoe UI, Arial, sans-serif" font-size="14" font-weight="400" text-anchor="start">Lampadas e resistencias toleram</text>
<text x="1018" y="654" fill="#5B6B79" font-family="Segoe UI, Arial, sans-serif" font-size="14" font-weight="400" text-anchor="start">melhor, mas nao legitimam energia</text>
<text x="1018" y="676" fill="#5B6B79" font-family="Segoe UI, Arial, sans-serif" font-size="14" font-weight="400" text-anchor="start">ruim no sistema inteiro.</text>
<text x="70" y="862" fill="#5B6B79" font-family="Segoe UI, Arial, sans-serif" font-size="14" font-weight="400" text-anchor="start">FORMATO: GRAFICO-COMPARATIVO  |  PRIORIDADE: ALTA</text>
</svg>
