<svg xmlns="http://www.w3.org/2000/svg" viewBox="0 0 1400 900" width="1400" height="900">
<rect x="0" y="0" width="1400" height="900" fill="#F6F2EA" rx="0" ry="0"/>
<circle cx="1238" cy="96" r="118" fill="#E8F1FB"/>
<circle cx="1320" cy="32" r="64" fill="#F8E6CC"/>
<rect x="50" y="34" width="1300" height="132" fill="#FFFDF8" rx="24" ry="24" stroke="#E4D8C8" stroke-width="1"/>
<rect x="50" y="34" width="14" height="132" fill="#DB7C26" rx="20" ry="20"/>
<text x="82" y="64" fill="#5B6B79" font-family="Bahnschrift, Segoe UI, Arial, sans-serif" font-size="12" font-weight="700" text-anchor="start">CARTILHA VISUAL | ELETRO NAUTICA</text>
<text x="82" y="96" fill="#0F172A" font-family="Bahnschrift, Segoe UI, Arial, sans-serif" font-size="25" font-weight="700" text-anchor="start">Piloto automatico: sensores, controlador e atuador</text>
<text x="82" y="138" fill="#5B6B79" font-family="Bahnschrift, Segoe UI, Arial, sans-serif" font-size="13" font-weight="400" text-anchor="start">Fluxo entre bussola/heading, controlador, unidade de potencia, atuador e leme.</text>
<rect x="1130" y="58" width="176" height="58" fill="#0F172A" rx="18" ry="18"/>
<text x="1218" y="80" fill="#FFFDF8" font-family="Bahnschrift, Segoe UI, Arial, sans-serif" font-size="14" font-weight="700" text-anchor="center">SVG + PNG</text>
<text x="1218" y="104" fill="#D9E2EC" font-family="Bahnschrift, Segoe UI, Arial, sans-serif" font-size="11" font-weight="400" text-anchor="center">versionavel</text>
<rect x="70" y="188" width="850" height="74" fill="#EEF7FF" rx="24" ry="24" stroke="#8CB9F4" stroke-width="2"/>
<text x="96" y="218" fill="#0F172A" font-family="Bahnschrift, Segoe UI, Arial, sans-serif" font-size="18" font-weight="700" text-anchor="start">PILOTO AUTOMATICO MEDE RUMO, DECIDE CORRECAO E MOVE O LEME</text>
<rect x="950" y="188" width="380" height="74" fill="#0F172A" rx="24" ry="24"/>
<text x="1140" y="217" fill="#FFFDF8" font-family="Bahnschrift, Segoe UI, Arial, sans-serif" font-size="15" font-weight="700" text-anchor="center">LEITURA EM CAMPO</text>
<text x="1140" y="242" fill="#D9E2EC" font-family="Bahnschrift, Segoe UI, Arial, sans-serif" font-size="12" font-weight="400" text-anchor="center">siga evidencias, nao palpites</text>
<rect x="70" y="292" width="1260" height="304" fill="#FFFDF8" rx="30" ry="30" stroke="#E4D8C8" stroke-width="1"/>
<rect x="102" y="322" width="10" height="28" fill="#168A8A" rx="6" ry="6"/>
<text x="122" y="342" fill="#168A8A" font-family="Bahnschrift, Segoe UI, Arial, sans-serif" font-size="13" font-weight="700" text-anchor="start">MAPA DO PROCESSO</text>
<text x="102" y="356" fill="#5B6B79" font-family="Bahnschrift, Segoe UI, Arial, sans-serif" font-size="12" font-weight="400" text-anchor="start">Leia como uma sequencia de decisoes: cada etapa deixa uma evidencia para a</text>
<text x="102" y="373" fill="#5B6B79" font-family="Bahnschrift, Segoe UI, Arial, sans-serif" font-size="12" font-weight="400" text-anchor="start">proxima.</text>
<line x1="150" y1="466" x2="1250" y2="466" stroke="#D9E2EC" stroke-width="2" stroke-linecap="round" stroke-dasharray="8 10"/>
<line x1="210.0" y1="422" x2="395.0" y2="514" stroke="#5B6B79" stroke-width="2" stroke-linecap="round"/>
<line x1="395.0" y1="514" x2="377.0347140392256" y2="515.1173631225355" stroke="#5B6B79" stroke-width="2" stroke-linecap="round"/>
<line x1="395.0" y1="514" x2="385.0496921702452" y2="499.00028753298517" stroke="#5B6B79" stroke-width="2" stroke-linecap="round"/>
<line x1="475.0" y1="514" x2="660.0" y2="422" stroke="#5B6B79" stroke-width="2" stroke-linecap="round"/>
<line x1="660.0" y1="422" x2="650.0496921702452" y2="436.99971246701483" stroke="#5B6B79" stroke-width="2" stroke-linecap="round"/>
<line x1="660.0" y1="422" x2="642.0347140392256" y2="420.88263687746456" stroke="#5B6B79" stroke-width="2" stroke-linecap="round"/>
<line x1="740.0" y1="422" x2="925.0" y2="514" stroke="#5B6B79" stroke-width="2" stroke-linecap="round"/>
<line x1="925.0" y1="514" x2="907.0347140392256" y2="515.1173631225355" stroke="#5B6B79" stroke-width="2" stroke-linecap="round"/>
<line x1="925.0" y1="514" x2="915.0496921702452" y2="499.00028753298517" stroke="#5B6B79" stroke-width="2" stroke-linecap="round"/>
<line x1="1005.0" y1="514" x2="1190.0" y2="422" stroke="#5B6B79" stroke-width="2" stroke-linecap="round"/>
<line x1="1190.0" y1="422" x2="1180.0496921702452" y2="436.99971246701483" stroke="#5B6B79" stroke-width="2" stroke-linecap="round"/>
<line x1="1190.0" y1="422" x2="1172.0347140392255" y2="420.88263687746456" stroke="#5B6B79" stroke-width="2" stroke-linecap="round"/>
<circle cx="170.0" cy="422" r="37" fill="#FFFFFF" stroke="#E4D8C8" stroke-width="1"/>
<circle cx="170.0" cy="422" r="32" fill="#1D6FD8"/>
<text x="170.0" y="429" fill="#FFFDF8" font-family="Bahnschrift, Segoe UI, Arial, sans-serif" font-size="20" font-weight="700" text-anchor="center">1</text>
<circle cx="170.0" cy="356" r="22" fill="#FFFDF8" stroke="#1D6FD8" stroke-width="3"/>
<line x1="158.0" y1="356" x2="182.0" y2="356" stroke="#1D6FD8" stroke-width="3" stroke-linecap="round"/>
<line x1="170.0" y1="344" x2="170.0" y2="368" stroke="#1D6FD8" stroke-width="3" stroke-linecap="round"/>
<rect x="92" y="468" width="184" height="78" fill="#FEFCF5" rx="18" ry="18" stroke="#E4D8C8" stroke-width="1"/>
<text x="108" y="494" fill="#0F172A" font-family="Bahnschrift, Segoe UI, Arial, sans-serif" font-size="14" font-weight="700" text-anchor="start">Heading</text>
<text x="108" y="520" fill="#5B6B79" font-family="Bahnschrift, Segoe UI, Arial, sans-serif" font-size="10" font-weight="400" text-anchor="start">HDG</text>
<circle cx="435.0" cy="514" r="37" fill="#FFFFFF" stroke="#E4D8C8" stroke-width="1"/>
<circle cx="435.0" cy="514" r="32" fill="#7C5CC4"/>
<text x="435.0" y="521" fill="#FFFDF8" font-family="Bahnschrift, Segoe UI, Arial, sans-serif" font-size="20" font-weight="700" text-anchor="center">2</text>
<circle cx="435.0" cy="448" r="22" fill="#FFFDF8" stroke="#7C5CC4" stroke-width="3"/>
<line x1="423.0" y1="448" x2="447.0" y2="448" stroke="#7C5CC4" stroke-width="3" stroke-linecap="round"/>
<line x1="435.0" y1="436" x2="435.0" y2="460" stroke="#7C5CC4" stroke-width="3" stroke-linecap="round"/>
<rect x="343.0" y="396" width="184" height="78" fill="#FEFCF5" rx="18" ry="18" stroke="#E4D8C8" stroke-width="1"/>
<text x="359.0" y="422" fill="#0F172A" font-family="Bahnschrift, Segoe UI, Arial, sans-serif" font-size="14" font-weight="700" text-anchor="start">Controlador</text>
<text x="359.0" y="448" fill="#5B6B79" font-family="Bahnschrift, Segoe UI, Arial, sans-serif" font-size="10" font-weight="400" text-anchor="start">erro</text>
<circle cx="700.0" cy="422" r="37" fill="#FFFFFF" stroke="#E4D8C8" stroke-width="1"/>
<circle cx="700.0" cy="422" r="32" fill="#D9534F"/>
<text x="700.0" y="429" fill="#FFFDF8" font-family="Bahnschrift, Segoe UI, Arial, sans-serif" font-size="20" font-weight="700" text-anchor="center">3</text>
<circle cx="700.0" cy="356" r="22" fill="#FFFDF8" stroke="#D9534F" stroke-width="3"/>
<line x1="688.0" y1="356" x2="712.0" y2="356" stroke="#D9534F" stroke-width="3" stroke-linecap="round"/>
<line x1="700.0" y1="344" x2="700.0" y2="368" stroke="#D9534F" stroke-width="3" stroke-linecap="round"/>
<rect x="608.0" y="468" width="184" height="78" fill="#FEFCF5" rx="18" ry="18" stroke="#E4D8C8" stroke-width="1"/>
<text x="624.0" y="494" fill="#0F172A" font-family="Bahnschrift, Segoe UI, Arial, sans-serif" font-size="14" font-weight="700" text-anchor="start">Potencia</text>
<text x="624.0" y="520" fill="#5B6B79" font-family="Bahnschrift, Segoe UI, Arial, sans-serif" font-size="10" font-weight="400" text-anchor="start">corrente</text>
<circle cx="965.0" cy="514" r="37" fill="#FFFFFF" stroke="#E4D8C8" stroke-width="1"/>
<circle cx="965.0" cy="514" r="32" fill="#E0A100"/>
<text x="965.0" y="521" fill="#FFFDF8" font-family="Bahnschrift, Segoe UI, Arial, sans-serif" font-size="20" font-weight="700" text-anchor="center">4</text>
<circle cx="965.0" cy="448" r="22" fill="#FFFDF8" stroke="#E0A100" stroke-width="3"/>
<line x1="953.0" y1="448" x2="977.0" y2="448" stroke="#E0A100" stroke-width="3" stroke-linecap="round"/>
<line x1="965.0" y1="436" x2="965.0" y2="460" stroke="#E0A100" stroke-width="3" stroke-linecap="round"/>
<rect x="873.0" y="396" width="184" height="78" fill="#FEFCF5" rx="18" ry="18" stroke="#E4D8C8" stroke-width="1"/>
<text x="889.0" y="422" fill="#0F172A" font-family="Bahnschrift, Segoe UI, Arial, sans-serif" font-size="14" font-weight="700" text-anchor="start">Atuador</text>
<text x="889.0" y="448" fill="#5B6B79" font-family="Bahnschrift, Segoe UI, Arial, sans-serif" font-size="10" font-weight="400" text-anchor="start">hidraulico</text>
<circle cx="1230.0" cy="422" r="37" fill="#FFFFFF" stroke="#E4D8C8" stroke-width="1"/>
<circle cx="1230.0" cy="422" r="32" fill="#2A9D57"/>
<text x="1230.0" y="429" fill="#FFFDF8" font-family="Bahnschrift, Segoe UI, Arial, sans-serif" font-size="20" font-weight="700" text-anchor="center">5</text>
<circle cx="1230.0" cy="356" r="22" fill="#FFFDF8" stroke="#2A9D57" stroke-width="3"/>
<line x1="1218.0" y1="356" x2="1242.0" y2="356" stroke="#2A9D57" stroke-width="3" stroke-linecap="round"/>
<line x1="1230.0" y1="344" x2="1230.0" y2="368" stroke="#2A9D57" stroke-width="3" stroke-linecap="round"/>
<rect x="1138.0" y="468" width="184" height="78" fill="#FEFCF5" rx="18" ry="18" stroke="#E4D8C8" stroke-width="1"/>
<text x="1154.0" y="494" fill="#0F172A" font-family="Bahnschrift, Segoe UI, Arial, sans-serif" font-size="14" font-weight="700" text-anchor="start">Leme</text>
<text x="1154.0" y="520" fill="#5B6B79" font-family="Bahnschrift, Segoe UI, Arial, sans-serif" font-size="10" font-weight="400" text-anchor="start">resposta</text>
<rect x="70" y="622" width="388" height="82" fill="#FFFDF8" rx="22" ry="22" stroke="#E4D8C8" stroke-width="1"/>
<rect x="96" y="642" width="10" height="28" fill="#1D6FD8" rx="6" ry="6"/>
<text x="116" y="662" fill="#1D6FD8" font-family="Bahnschrift, Segoe UI, Arial, sans-serif" font-size="13" font-weight="700" text-anchor="start">PERGUNTA-GUIA</text>
<text x="96" y="680" fill="#5B6B79" font-family="Bahnschrift, Segoe UI, Arial, sans-serif" font-size="11" font-weight="400" text-anchor="start">Mostrar piloto automatico como sistema de</text>
<text x="96" y="695" fill="#5B6B79" font-family="Bahnschrift, Segoe UI, Arial, sans-serif" font-size="11" font-weight="400" text-anchor="start">controle em malha fechada, nao apenas como</text>
<text x="96" y="710" fill="#5B6B79" font-family="Bahnschrift, Segoe UI, Arial, sans-serif" font-size="11" font-weight="400" text-anchor="start">painel de comando.</text>
<rect x="486" y="622" width="392" height="82" fill="#FFFDF8" rx="22" ry="22" stroke="#E4D8C8" stroke-width="1"/>
<rect x="512" y="642" width="10" height="28" fill="#2A9D57" rx="6" ry="6"/>
<text x="532" y="662" fill="#2A9D57" font-family="Bahnschrift, Segoe UI, Arial, sans-serif" font-size="13" font-weight="700" text-anchor="start">APLIQUE ASSIM</text>
<text x="512" y="680" fill="#5B6B79" font-family="Bahnschrift, Segoe UI, Arial, sans-serif" font-size="11" font-weight="400" text-anchor="start">Confirme entrada, caminho, protecao, carga e</text>
<text x="512" y="695" fill="#5B6B79" font-family="Bahnschrift, Segoe UI, Arial, sans-serif" font-size="11" font-weight="400" text-anchor="start">registro antes de concluir.</text>
<rect x="906" y="622" width="424" height="82" fill="#FFFDF8" rx="22" ry="22" stroke="#E4D8C8" stroke-width="1"/>
<rect x="932" y="642" width="10" height="28" fill="#DB7C26" rx="6" ry="6"/>
<text x="952" y="662" fill="#DB7C26" font-family="Bahnschrift, Segoe UI, Arial, sans-serif" font-size="13" font-weight="700" text-anchor="start">ATENCAO</text>
<text x="932" y="680" fill="#5B6B79" font-family="Bahnschrift, Segoe UI, Arial, sans-serif" font-size="11" font-weight="400" text-anchor="start">FALHAS TIPICAS</text>
<rect x="70" y="724" width="1260" height="98" fill="#FFFDF8" rx="24" ry="24" stroke="#E4D8C8" stroke-width="1"/>
<text x="94" y="758" fill="#0F172A" font-family="Bahnschrift, Segoe UI, Arial, sans-serif" font-size="15" font-weight="700" text-anchor="start">ERROS COMUNS E LEITURAS UTEIS</text>
<circle cx="104.0" cy="796" r="10" fill="#168A8A"/>
<text x="104.0" y="802" fill="#FFFDF8" font-family="Bahnschrift, Segoe UI, Arial, sans-serif" font-size="10" font-weight="700" text-anchor="center">1</text>
<text x="124.0" y="793" fill="#5B6B79" font-family="Bahnschrift, Segoe UI, Arial, sans-serif" font-size="12" font-weight="400" text-anchor="start">Sensor ruim: Piloto corrige para dado</text>
<text x="124.0" y="809" fill="#5B6B79" font-family="Bahnschrift, Segoe UI, Arial, sans-serif" font-size="12" font-weight="400" text-anchor="start">falso.</text>
<circle cx="406.0" cy="796" r="10" fill="#168A8A"/>
<text x="406.0" y="802" fill="#FFFDF8" font-family="Bahnschrift, Segoe UI, Arial, sans-serif" font-size="10" font-weight="700" text-anchor="center">2</text>
<text x="426.0" y="793" fill="#5B6B79" font-family="Bahnschrift, Segoe UI, Arial, sans-serif" font-size="12" font-weight="400" text-anchor="start">Energia fraca: Atuador perde forca</text>
<text x="426.0" y="809" fill="#5B6B79" font-family="Bahnschrift, Segoe UI, Arial, sans-serif" font-size="12" font-weight="400" text-anchor="start">sob carga.</text>
<circle cx="708.0" cy="796" r="10" fill="#168A8A"/>
<text x="708.0" y="802" fill="#FFFDF8" font-family="Bahnschrift, Segoe UI, Arial, sans-serif" font-size="10" font-weight="700" text-anchor="center">3</text>
<text x="728.0" y="793" fill="#5B6B79" font-family="Bahnschrift, Segoe UI, Arial, sans-serif" font-size="12" font-weight="400" text-anchor="start">Calibracao: Ganho errado gera</text>
<text x="728.0" y="809" fill="#5B6B79" font-family="Bahnschrift, Segoe UI, Arial, sans-serif" font-size="12" font-weight="400" text-anchor="start">oscilacao.</text>
<circle cx="1010.0" cy="796" r="10" fill="#168A8A"/>
<text x="1010.0" y="802" fill="#FFFDF8" font-family="Bahnschrift, Segoe UI, Arial, sans-serif" font-size="10" font-weight="700" text-anchor="center">4</text>
<text x="1030.0" y="793" fill="#5B6B79" font-family="Bahnschrift, Segoe UI, Arial, sans-serif" font-size="12" font-weight="400" text-anchor="start">Sensor de heading informa orientacao.</text>
<line x1="70" y1="842" x2="1330" y2="842" stroke="#E4D8C8" stroke-width="1" stroke-linecap="round"/>
<text x="70" y="868" fill="#5B6B79" font-family="Bahnschrift, Segoe UI, Arial, sans-serif" font-size="12" font-weight="400" text-anchor="start">FORMATO: ARQUITETURA-DE-CONTROLE | PRIORIDADE: ALTA | USE COMO APOIO DIDATICO, NAO COMO NORMA ISOLADA</text>
</svg>
